# xmcd
#
# Track frame offsets:
#      150
#      25572
#      48927
#      85650
#      102420
#      145962
#      161645
#
# Disc length: 2569
# Revision: 2
# Processed by: cddbd v1.4b41PL1 Copyright (c) Steve Scherf et al.
# Submitted via: PowerPlay 1.50
#
DISCID=4e0a0707
DTITLE=Albert Collins and the Icebrakers - Live In Japan
DYEAR=1900
DGENRE=
TTITLE0=Listen Here!
TTITLE1=Tired Man
TTITLE2=If Trouble Was Money
TTITLE3=Jealous Man
TTITLE4=Stormy Monday
TTITLE5=Skatin'
TTITLE6=All About My Girl
EXTD=Albert Collins: Guitar and Vocals\nA.C. Reed: Tenor Sax and Vocals\n
EXTD=Larry Burton: Guitar\nJohnn B. Gayden: Bass\nCasey Jones: Drums
EXTD=and Background Vocals
EXTT0=
EXTT1=
EXTT2=
EXTT3=Vocal by A.C. Reed
EXTT4=
EXTT5=
EXTT6=
PLAYORDER=
